<?xml version="1.0" standalone="no"?>
<svg xmlns="http://www.w3.org/2000/svg" viewBox="0 0 139.416 29" width="139.416" height="29"><g fill="#ff5576" color="#ff5576" transform="translate(0, 0) scale(0.6041667)"><svg width="48.0" height="48.0" x="0.0" y="0.0" viewBox="0 0 48 48"><path fill="currentColor" fill-rule="evenodd" d="M28 24a4 4 0 1 1-8 0 4 4 0 0 1 8 0M26 0c12.318 1.024 22 11.367 22 24 0 12.505-9.489 22.772-21.631 23.967l-.37.033v-4.018C36.11 42.974 44 34.412 44 24c0-10.296-7.71-18.782-17.655-19.948L26 4.015V0zm-4 0v4.015C11.894 5.023 4 13.586 4 24c0 10.294 7.716 18.78 17.657 19.945l.343.037V48C9.684 46.979 0 36.631 0 24 0 11.367 9.684 1.024 22 0zm-9.82 26c.953 5.672 5.874 10 11.82 10 5.946 0 10.867-4.328 11.82-10h4.041c-.984 7.89-7.7 14-15.861 14-8.156 0-14.876-6.11-15.861-14zM24 16a8 8 0 0 1 8 8 8 8 0 1 1-8-8zm0-8c8.047 0 14.69 5.941 15.816 13.672l.045.328h-4.04c-.954-5.674-5.875-10-11.82-10-5.844 0-10.698 4.178-11.768 9.708L12.18 22H8.14C9.125 14.11 15.844 8 24 8z"></path></svg></g><line x1="41" y1="1" x2="41" y2="28" stroke="#0b0cac" stroke-linecap="round"></line><path fill="#0b0cac" fill-rule="nonzero" d="M16.44 16.80L11.81 16.80L4.87 8.78L4.87 16.80L0 16.80L0 0.29L4.63 0.29L11.57 8.42L11.57 0.29L16.44 0.29L16.44 16.80ZM19.99 16.80L19.99 0.29L34.27 0.29L34.27 4.25L25.30 4.25L25.30 6.53L32.98 6.53L32.98 10.32L25.30 10.32L25.30 12.84L34.44 12.84L34.44 16.80L19.99 16.80ZM52.22 4.51L46.82 4.51L46.82 16.80L41.52 16.80L41.52 4.51L36.10 4.51L36.10 0.29L52.22 0.29L52.22 4.51ZM61.58 0Q64.75 0 66.79 1.28Q68.83 2.57 68.88 5.09L68.88 5.09L68.88 5.38L63.91 5.38L63.91 5.28Q63.91 4.56 63.38 4.08Q62.86 3.60 61.78 3.60L61.78 3.60Q60.72 3.60 60.16 3.91Q59.59 4.22 59.59 4.68L59.59 4.68Q59.59 5.33 60.36 5.64Q61.13 5.95 62.83 6.29L62.83 6.29Q64.82 6.70 66.11 7.14Q67.39 7.58 68.35 8.59Q69.31 9.60 69.34 11.33L69.34 11.33Q69.34 14.26 67.36 15.67Q65.38 17.09 62.06 17.09L62.06 17.09Q58.20 17.09 56.05 15.79Q53.90 14.50 53.90 11.21L53.90 11.21L58.92 11.21Q58.92 12.46 59.57 12.88Q60.22 13.30 61.58 13.30L61.58 13.30Q62.59 13.30 63.25 13.08Q63.91 12.86 63.91 12.19L63.91 12.19Q63.91 11.59 63.18 11.29Q62.45 10.99 60.79 10.66L60.79 10.66Q58.78 10.22 57.46 9.76Q56.14 9.29 55.15 8.21Q54.17 7.13 54.17 5.28L54.17 5.28Q54.17 2.57 56.27 1.28Q58.37 0 61.58 0L61.58 0ZM88.42 10.15Q88.42 13.54 86.28 15.31Q84.14 17.09 80.21 17.09L80.21 17.09Q76.27 17.09 74.12 15.31Q71.98 13.54 71.98 10.15L71.98 10.15L71.98 0.29L77.28 0.29L77.28 10.08Q77.28 11.47 78.02 12.30Q78.77 13.13 80.18 13.13L80.18 13.13Q81.60 13.13 82.36 12.29Q83.11 11.45 83.11 10.08L83.11 10.08L83.11 0.29L88.42 0.29L88.42 10.15Z" transform="translate(51, 6.1)"></path></svg>